<?xml version="1.0" encoding="UTF-8"?>
<svg xmlns="http://www.w3.org/2000/svg" viewBox="0 0 64 64">
  <g fill="none" fill-rule="evenodd">
    <path d="M46 18c6 6 6 16 0 22-6 6-16 6-22 0C18 34 18 24 24 18c6-6 16-6 22 0z" fill="#E53935"/>
    <path d="M18 12c4 2 8 1 11-2 2-2 6-4 11-4 0 0-3 6-11 8-8 2-12 1-14-2z" fill="#D32F2F" opacity=".9"/>
    <path d="M44 12c3-2 6-2 9 0-1 3-4 6-7 8-3 2-5 1-7 0 2-3 3-6 5-8z" fill="#C62828"/>
    <path d="M38 8c1-3 6-5 10-4-2 3-3 6-6 8-3 2-6 1-7 0 1-2 2-4 3-4z" fill="#A5D6A7"/>
    <path d="M39 6c1-2 4-3 7-2-2 2-3 4-5 5-2 1-4 1-4 0 0-1 1-3 2-3z" fill="#66BB6A"/>
  </g>
</svg>
